<?xml version="1.0" encoding="UTF-8"?>
<svg id="Layer_1" data-name="Layer 1" xmlns="http://www.w3.org/2000/svg" xmlns:xlink="http://www.w3.org/1999/xlink" viewBox="0 0 198.12 154.88">
  <defs>
    <style>
      .cls-1 {
        fill: #eaeaeb;
      }

      .cls-2 {
        fill: #fdfdfd;
      }

      .cls-3 {
        fill: #b4b5b2;
      }

      .cls-4 {
        fill: #b9ac9a;
      }

      .cls-5 {
        fill: #d7d3c8;
      }

      .cls-6 {
        fill: #dfdedf;
      }

      .cls-7 {
        fill: #dfdede;
      }

      .cls-8 {
        fill: #110e1c;
      }

      .cls-9 {
        fill: #412b6f;
      }

      .cls-10 {
        fill: #313132;
      }

      .cls-11 {
        fill: #797a75;
      }

      .cls-12 {
        fill: #271b4f;
      }

      .cls-13 {
        font-size: 68.51px;
      }

      .cls-13, .cls-14 {
        fill: #231f20;
        font-family: EvilofFrankenstein, 'Evil of Frankenstein';
      }

      .cls-14 {
        font-size: 71.47px;
      }
    </style>
    <symbol id="Ashlee_Logo" data-name="Ashlee Logo" viewBox="0 0 312.73 294.13">
      <g>
        <text class="cls-14" transform="translate(47.12 202.2) rotate(-28.55)"><tspan x="0" y="0">A</tspan></text>
        <text class="cls-14" transform="translate(81.2 183.48) rotate(-20.74)"><tspan x="0" y="0">u</tspan></text>
        <text class="cls-14" transform="translate(119.09 169.02) rotate(-12.79)"><tspan x="0" y="0">b</tspan></text>
        <text class="cls-14" transform="translate(158.05 160.14) rotate(-5.01)"><tspan x="0" y="0">r</tspan></text>
        <text class="cls-14" transform="translate(196.17 157.05) rotate(1.42)"><tspan x="0" y="0">e</tspan></text>
        <text class="cls-14" transform="translate(222.86 157.66) rotate(6.72)"><tspan x="0" y="0">e</tspan></text>
        <text class="cls-13" transform="translate(33.8 134) rotate(-23.17) scale(1.05 1)"><tspan x="0" y="0">A</tspan></text>
        <text class="cls-13" transform="translate(70 118.5) rotate(-17.6) scale(1.05 1)"><tspan x="0" y="0">s</tspan></text>
        <text class="cls-13" transform="translate(106.72 106.86) rotate(-12.57) scale(1.05 1)"><tspan x="0" y="0">h</tspan></text>
        <text class="cls-13" transform="translate(142.93 98.77) rotate(-7.94) scale(1.05 1)"><tspan x="0" y="0">l</tspan></text>
        <text class="cls-13" transform="translate(179.35 93.84) rotate(-4.12) scale(1.05 1)"><tspan x="0" y="0">e</tspan></text>
        <text class="cls-13" transform="translate(206.43 91.87) rotate(-.98) scale(1.05 1)"><tspan x="0" y="0">e</tspan></text>
        <g>
          <path class="cls-10" d="m80.32,287.04c-4.35-.93-9.51.82-13.16-2.39.28-.57.93-1.2.8-1.71-2.16-8.8,0-17.66-.69-26.47-.28-3.48-2.26-6.9-.75-10.44.58-1.37,1.33-3.21-.97-3.42-2.79-.25-1.63,1.98-1.64,3.08-.11,10.9-.25,21.81.02,32.71.09,3.56-1.77,3.41-4.88,2.38-.1-3.68-.19-7.37-.29-11.05,1.39-.98,1.46-1.92-.12-2.82-.27-15.72-.54-31.44-.81-47.16,3.46.88,4.48-1.32,6.04-2.84,1.26,2.08-3.12,4.96,1.56,6.55,1.62,1.99,4.16,2.04,6.79,1.92,3.03.62,5.96,2.16,9.15,1.59,12.08-2.15,24.5-1.56,36.67-2.97,8.21-.96,16.61-.88,24.68-2.64,6.72-1.43,12.39-.22,16.89,3.97-1.22,6.78-3.9,13.41-3.31,20.36-1.17,7.33-1.2,14.69-.52,22.05-2.38.79-2.11,1.47.15,2.06l.21-.11c-.02.62-.04,1.25-.05,1.87-2.22,2.97-.35,6.39-1.6,9.38-1.97,4.72,4.03,4.27,6.92,6.25h-21.75c2.75-.87,4.56-1.35,6.24-2.01,1.62-.63,3.29-1.53,2.88-3.14-.52-2.04-2.95-1.33-4.43-1.16-6.01.69-12.18.83-17.93,2.59-.48.05-.96.09-1.44.14-1.27-.18-2.5-.16-3.62.41-13.55,1.94-27.2,3.07-41,3.01Z"/>
          <path class="cls-3" d="m156.29,245.69c-.59-6.95,2.1-13.59,3.31-20.36,1.21-4.34,2.43-8.67,3.64-13.01.24-.86.26-2.63,1.02-2.35,5,1.87,2.98-2.41,4.89-3.13.91-.27,1.82-.54,2.73-.81,7.33-3.05,8.38-9.5,12.84-14.1.44-.61.88-1.22,1.33-1.83,1.66-.23,3.31-.47,4.97-.7.2.8.69,1.7,1.82,1.45,6.42-1.42,13.38-.02,19.71-2.26-3.33-1-7.31.89-11.28-1.8,8.49-.88,15.87-.82,23.25.41.74-.58,1.49-1.17,2.23-1.75,3.04,0,3.56,2.31,4.56,3.62,1.09,1.43,2.02,2,3.93,1.94-1.27,4.38,1.44,4.92,5.98,3.69.39,1.49-2.1,1.54-2.44,2.9,13.86-.83,27.67-.95,40.8-4.71-.1,1.53-.2,3.06-.31,4.59-2.09,1.9-.09,3.25,1.08,4.7.71.75,1.41.69,2.12,0,0,0,.46.2.46.2-.74,2.07,3.89,5.35-2.33,6.18-.36-2.34-.89-4.88-3.46-6.14-1.08-.53-1.72-2.36-3.69-1.63-1.71.63-2.16,1.76-2.53,3.24-.61,2.46.32,4.8.12,7.19-6.56.42-13.12.86-19.68,1.26-4.38.27-8.83.41-5.36,5.39.41.59.09,1.52-1.1,1.85-2.38-1.3-5.59-2.21-6.96-3.98-3.21-4.13-6.08-6.27-10.95-1.42-.65.65-1.71.82-2.69.44-.95-.37-.76-1.05-.22-1.54,1.17-1.04,4.03-1.99,1.03-3.43-2.66-1.28-1.93,2.08-3.93,2.24-.55.05-.88,1.04-1.83.43.63-4.29-4.51-9.08-7.99-7.27-3.52,1.84-5.5,7.26-10.32,1.18-3.53,2.19-9.29,2.42-10.2,6.91-5.1,2.05-10.9,3.44-13.18,8.19-.91,1.7-3.43,2.67-3.59,4.72-.82-.01-1.12.28-.88.89-1.86-.22-1.65.96-2,1.77-.64-.31-1.4-.53-1.9-.94-1.13-.91-1.24-2.96-3.68-2.38-2.15.5-3.87,1.85-4.38,3.5-.73,2.34-1.29,4.73-1.66,7.17-.48,3.21.81,6.97-3.3,9.48Zm64.5-49.16c1.84-.67,1.51-1.52.08-2.96,0,1.35,0,2.18,0,3.01-.29.14-.58.28-.87.42.24.09.47.18.71.26l.08-.74Zm4.87-2.74c.51-.58,1.01-1.16,1.52-1.73-1.38.07-3.1-.87-3.92.8v5.41c2.25-2.68,4.19-1.78,6.19-1.5,1.19.16.96-.84.87-1.34-.41-2.4-2.95-1.34-4.66-1.64Zm-36.83,18.33c-3.44-2.05-5.55-2-7.62-.84-.61.34-1.05,1.17-.18,1.48,2.36.83,4.26-.83,7.8-.64Zm19.68-9.84c-.04-.12-.09-.25-.13-.37-.13.03-.38.06-.38.09,0,.12.07.25.12.37.13-.03.27-.06.4-.09Z"/>
          <path class="cls-3" d="m142.71,221.36c-8.07,1.76-16.47,1.68-24.68,2.64-12.16,1.42-24.59.82-36.67,2.97-3.19.57-6.12-.97-9.15-1.59-.1-1.57-.2-3.15-.37-5.64-1.85,2.55-3.43,4.06-6.42,3.73-4.69-1.59-.3-4.47-1.56-6.55,1.91-4.6,1.6-5.16-2.56-4.63-3.4.74-3.8-.92-3.85-2.86.85-2.49-1.67-5.39,1.57-7.58,1.5,2.25,4.28,3.16,7.08,4.05l-.02-.03c1.05,1.52,2.7,2.08,4.87,1.81l1.25.03c2.08,3.51,4.98,1.43,8.58,1.49-2.73-2.66-5.82,1.13-7.45-1.69,1.49-1.57,1.51-3.35,1.2-5.16-.29-1.75.94-1.63,2.44-1.22.78,1.66-.44,4.2,3.11,4.63,2.29.27,3.84-.53,3.89-2.52,4.42-.91,1.89,3.52,4.83,3.74-.79,1.61-3.68.83-4.67,2.44,5.49.65,9.95-2.3,15-2.33,6.08-.04,8.28-2.58,8.85-6.69,1.41-.35,3.58.5,4.19-.83.67-1.46-1.78-1.67-2.79-2.46-.92-.73-2.35-1.09-2.49-2.31,2.07-1.1-.06-4.35,1.85-4.21,5.47.39,5.43-2.74,6.83-5.1,1.67-1.2,2.76,3.14,4.6.29.78-.1,1.56-.21,2.34-.31,0,.6,0,1.2,0,1.8.79.66,1.59,1.33,2.38,1.99,1.67,4.6,2.95,4.85,8.6,1.65,3.6,1.29,9.64.86,7.18,6.39-.45,1.01,1.93,1.27,2.77,2.07,1.14,1.49-1.94,4.64,3.06,4.6.48,6.03-5.07,11.27-3.79,17.4Zm-19.32-22.53c-7.21-.73-8.84.22-9.3,4.28-.36,3.12,2.91,1.53,4.33,2.24,1.34.67,2.82.22,2.13-1.44-.9-2.17,1.97-3.05,2.84-5.07Zm-41.04,21.06c2.81-1.01.51-3.28,2.24-4.75.89-.75-2.08-1.85-3.81-1.73-2.15.16-3,1.52-2.65,3,.41,1.73,2.34,2.57,4.23,3.47Zm51.53-7.35q-.82,4.9,3.78,4.74c-4.19-.14-2.6-2.89-3.78-4.74Zm-6.33.52c-.8-.52-1.29-1.02-1.93-1.22-.89-.27-1.64.16-1.33.87.2.46,1.01.87,1.66,1.08.28.09.86-.38,1.61-.73Zm-16.4,2.39c-.09.29-.31.57-.22.78.18.42.55.41.83.02.09-.12.18-.33.11-.4-.17-.16-.44-.26-.71-.4Z"/>
          <path class="cls-7" d="m224.52,187.21c-7.37-1.23-14.76-1.29-23.25-.41,3.97,2.69,7.95.8,11.28,1.8-6.33,2.24-13.29.84-19.71,2.26-1.13.25-1.63-.64-1.82-1.45,2.96-.62,6.47.5,9.75-1.8-5.92-.54-10.96-.25-15.97.62,0,0,.04.05.04.05.28-1.85,2.11-1.86,3.92-2.14,4.44-.68,7.79-1.98,7.12-6.39-.26-1.72.77-3.3,3.93-4.27,3.59-1.1,7.06-1.79,10.8-2.05,3.99,2.62,7.91,5.31,11.98,7.85,2.67,1.67,1.63,3.9,1.93,5.94Z"/>
          <path class="cls-11" d="m142.71,221.36c-1.28-6.13,4.27-11.38,3.79-17.4,3.11-1.63,8.13-.39,7.9.79-.71,3.54.67,7.74-3.69,10.72,1.88-.25,4.18.76,4.28-1.86.15-3.98,3.55-6.78,6.61-9.66,3.18-.05,5.9.6,7.56,2.9-1.91.71.11,4.99-4.89,3.13-.76-.29-.78,1.49-1.02,2.35-1.21,4.34-2.43,8.67-3.64,13.01-4.5-4.19-10.18-5.4-16.89-3.97Z"/>
          <path class="cls-3" d="m210.6,173.41c-3.74.26-7.21.95-10.8,2.05-3.16.97-4.19,2.55-3.93,4.27.67,4.41-2.68,5.71-7.12,6.39-1.81.28-3.64.3-3.92,2.14-2.41-4.35,1.26-8.04,2.27-12.01.31-1.23,2.39-2.54-1.05-2.82q-2.69-2.73-.24-5.69c0-3.09,1.58-4.14,5.53-2.85,2.73.89,5.63,1.45,8.47,2.13,1.18.28,2.73.71,2.68,1.59-.19,3.44,2.06,4.01,5.81,3.53.66-.09,1.54.82,2.32,1.27Zm-15.21-4.15c.3-1.55-1.68-1.73-2.61-1.41-1.42.5-2.71,1.54-3.52,2.59-.33.43,1.19.96,2.2,1.09,2.25.3,3.17-.78,3.92-2.28Z"/>
          <path class="cls-10" d="m115.57,185.49c-1.39,2.36-1.36,5.49-6.83,5.1-1.92-.14.22,3.11-1.85,4.21-.34-.05-.68-.04-1.01.04-1.56-.07-3.11-.14-4.67-.22-3.28-2.28-7.22-1.8-11.09-1.56l-3.45-.23c-.29-.39-.92-1.05-.83-1.12,4.29-3.12,7.74-8.16,14.01-7.86,5.44.25,10.26-1.53,15.47-1.16.49.91,1.12,1.81.26,2.79Z"/>
          <path class="cls-11" d="m235.25,191.01c-1.92.06-2.85-.51-3.93-1.94-1-1.31-1.52-3.61-4.56-3.62,1.98-2.64,6.5-2.84,8.62-5.34-.11,3.36,3.04,2.63,5.26,2.17,1.54-.32,2.76-1.58,4.12-2.42,1.58,1.31,3.71,1.25,5.42.66,3.19-1.1,3.09.75,3.7,2.08-2.44.51-1.58,2.07-1.76,3.3-4.07-.02-8.12-.89-12.26.17,5.31,1.47,10.73,2.29,16.44,1.22h-.15c.67.06,1.34.13,2.02.19-1.08.72,1.39,4.5-3.2,2.22-.56.72-1.12,1.45-1.68,2.17-2.38.15-5.08,1.09-6.24-1.62-.32-.74-1.09-.82-1.87-.35-2.63,1.58-4.81,1.2-7.33-.43-1.38-.89-2.44.26-2.59,1.53Zm.19-6.52c-.2.17-.41.34-.62.52.32.13.64.37.95.35.41-.02,1.25.01.72-.64-.14-.17-.65-.15-1.05-.23Z"/>
          <path class="cls-11" d="m59.04,280.79c3.12,1.03,4.97,1.18,4.88-2.38-.26-10.9-.13-21.81-.02-32.71.01-1.1-1.15-3.33,1.64-3.08,2.29.21,1.55,2.05.97,3.42-1.51,3.54.47,6.96.75,10.44.7,8.82-1.46,17.67.69,26.47.13.51-.52,1.14-.8,1.71-3.21.49-5.02-2.4-8.18-2.02.02-.61.04-1.23.06-1.84Z"/>
          <path class="cls-11" d="m124.89,189.25c-.79-.66-1.59-1.33-2.38-1.99,2.39,0,4.82.22,7.17-.02,4.84-.49,10.02,1.22,14.53-1.33,1.9,2.37,3.8,4.74,5.7,7.11-1.2,1.21-4.3,1.43-3.67,3.49.43,1.39,2.57,1.03,4.06,1.21-1.44,2.66-4.66.89-6.86,1.64-.84-.8-3.22-1.06-2.77-2.07,2.46-5.53-3.58-5.1-7.18-6.39-2.28-2.38-5.7-1.2-8.6-1.65Z"/>
          <path class="cls-10" d="m143.44,199.36c2.21-.75,5.42,1.02,6.86-1.64,3.67-1.22,7.16,1.75,10.84.28,2.28,1.89-3.57,4.14.46,5.95-3.06,2.88-6.46,5.68-6.61,9.66-.1,2.63-2.4,1.62-4.28,1.86,4.36-2.97,2.98-7.17,3.69-10.72.24-1.19-4.79-2.43-7.9-.79-5,.05-1.92-3.11-3.06-4.6Z"/>
          <path class="cls-3" d="m158.53,170.69c-1.75-2.82-1.15-4.59,3.43-4.58,0,0,.05-.07.05-.07.41.86,1.29.77,2.19.65,2.38.76,4.81,1.43,7.11,2.31,1.83.7,2.58.31,2.76-1.14,1.94.04,3.89.09,5.83.13.11,1.04.16,2.05-1.25,2.7-3.02,1.39-1.08,2.54.33,3.71-3.46,1.39-6.94.19-10.41.05-1.55-4.11-5.88-3.82-10.05-3.76Z"/>
          <path class="cls-7" d="m253.88,182.61c-.62-1.33-.52-3.18-3.71-2.08-1.71.59-3.84.65-5.42-.66.52-.84.02-1.58-.39-2.32.56-.3,1.12-.59,1.68-.89-.97-.38-1.31.34-1.89.64-.99.19-1.98.39-2.97.58.26-.95-1.52-2.73,1.51-2.57,4.61.25,9.15.42,13.53,2.15,4.42,1.75,9.77,2.36,10.21,7.3-.71,1.04-1.28,2.03-2.66.28-.72-.92-.99-2.49-3.21-2.23-2.23-.07-4.47-.13-6.7-.2Z"/>
          <path class="cls-7" d="m72.19,207.71l-1.25-.03c-.92-1.72-2.76-1.99-4.87-1.81,0,0,.02.03.02.03-.17-2.97-3.37-3.62-6.01-4.7,3.39-4.56,9.34-3.15,14.45-3.7.54.72,1.42.88,2.4.91.01.91.02,1.82.04,2.73-1.5-.42-2.74-.53-2.44,1.22.31,1.82.29,3.59-1.2,5.16-.39,0-.77.07-1.13.19Z"/>
          <path class="cls-1" d="m184.72,191.93c-4.46,4.6-5.51,11.05-12.84,14.1,1.08-1.89-3.17-2.79-1.44-4.84,2.9-3.44,5.63-6.95,9.21-10.03,2.43-2.09,2.93,2.37,5.07.77Z"/>
          <path class="cls-1" d="m279.59,192.9c-13.13,3.76-26.94,3.89-40.8,4.71.34-1.37,2.83-1.42,2.44-2.9,1.09-.29,2.49-1.07,3.22-.79,7.33,2.8,14.4-.35,21.58-.4,3.41.83,5.88-.03,7.48-2.46,1.84.99,6.24-3.08,6.09,1.84Z"/>
          <path class="cls-7" d="m144.21,185.92c-4.51,2.55-9.69.85-14.53,1.33-2.35.24-4.78.02-7.17.02,0-.6,0-1.2,0-1.8.15-.28.24-.6.48-.84,1.19-1.19,1.01-3.81,4-3.16,2.85.62-.32,2.7.46,3.55,5.87.33,11.58-4.34,16.76.89Z"/>
          <path class="cls-3" d="m273.5,191.05c-1.6,2.44-4.07,3.3-7.48,2.46.83-2.64-2.06-1.74-3.29-1.8-3.13-.15-6.3.08-9.45.16.56-.72,1.12-1.45,1.68-2.17,4.59,2.28,2.11-1.49,3.2-2.22.33-.07.66-.15.98-.23,3.13,2.86,6.31.55,9.47.05,2.67.43,2.88,2.79,4.89,3.74Z"/>
          <path class="cls-10" d="m158.53,170.69c4.17-.06,8.5-.35,10.05,3.76-4.7,2.75-10.34,1.91-16.89,3.35,2.95-3.06,4.89-5.09,6.84-7.12Z"/>
          <path class="cls-1" d="m86.66,192.83c1.15.08,2.3.15,3.45.23.01,1.19.03,2.38.04,3.57-2.11.31-4.13.77-5.81,1.87-1.67-.03-3.33-.05-5-.08l-.07-.05c.26-1.59-2.85-1.8-2.39-3.47,2.74-2.13,6.66-.96,9.77-2.06Z"/>
          <path class="cls-3" d="m161.14,198c-3.68,1.47-7.17-1.5-10.84-.28-1.49-.18-3.63.18-4.06-1.21-.64-2.06,2.47-2.28,3.67-3.49,5.04-.08,8.52,1.93,11.23,4.98Z"/>
          <path class="cls-7" d="m178.99,174.4c-1.4-1.17-3.35-2.32-.33-3.71,1.41-.65,1.36-1.65,1.25-2.7,1.97-.08,3.94-.17,5.9-.25q-2.45,2.97.24,5.69c-2.35.32-4.71.64-7.06.96Z"/>
          <path class="cls-10" d="m241.19,177.88c.99-.19,1.98-.39,2.97-.58,0,0,.21.25.21.25.41.75.91,1.48.39,2.32-1.36.84-2.58,2.1-4.12,2.42-2.23.46-5.37,1.19-5.26-2.17.81-2.5,3.49-2.1,5.82-2.23Z"/>
          <path class="cls-11" d="m268.61,187.31c-3.16.5-6.34,2.81-9.47-.05-.41-.45-.82-.9-1.23-1.35.34-1.32,2.75-1.57,2.67-3.1,2.21-.26,2.48,1.31,3.21,2.23,1.38,1.75,1.95.76,2.66-.28,1.21.6,2.27,1.28,2.16,2.55Z"/>
          <path class="cls-11" d="m61.3,212.28c4.15-.53,4.46.03,2.56,4.63-1.56,1.52-2.59,3.72-6.04,2.84-.07-.64-.14-1.28-.21-1.93,1.87,0,4.28.39,2.96-2.18-.65-1.26.55-2.24.74-3.37Z"/>
          <path class="cls-7" d="m61.3,212.28c-.18,1.13-1.39,2.11-.74,3.37,1.33,2.57-1.09,2.17-2.96,2.18-.48-2.8-3.91-5.56-.16-8.4.05,1.94.46,3.6,3.85,2.86Z"/>
          <path class="cls-11" d="m184.8,188.22c5.01-.87,10.06-1.17,15.97-.62-3.29,2.3-6.8,1.18-9.75,1.8-1.66.23-3.31.47-4.97.7-.42-.63-.83-1.26-1.25-1.88Z"/>
          <path class="cls-7" d="m174.07,167.86c-.18,1.45-.93,1.84-2.76,1.14-2.3-.88-4.73-1.55-7.11-2.31-.73-.22-1.46-.43-2.19-.65,0,0-.05.07-.05.07,4.72-2.24,8.24.49,12.11,1.75Z"/>
          <path class="cls-7" d="m115.57,185.49c.86-.98.23-1.88-.26-2.79q4.53-1.41,4.86,3.07c-1.84,2.85-2.93-1.49-4.6-.29Z"/>
          <path class="cls-1" d="m60.08,201.2c2.64,1.08,5.85,1.73,6.01,4.7-2.79-.9-5.58-1.8-7.08-4.05.35-.22.71-.43,1.06-.65Z"/>
          <path class="cls-3" d="m76.88,194.9c-.47,1.67,2.65,1.88,2.39,3.47-.78.01-1.56.03-2.34.04-.97-.03-1.86-.2-2.4-.91.23-1.16-.07-2.62,2.35-2.6Z"/>
          <path class="cls-11" d="m58.63,266.91c1.58.9,1.51,1.84.12,2.82-.83-.92-1.04-1.85-.12-2.82Z"/>
          <path class="cls-3" d="m156.07,271.57c.02-.62.04-1.25.05-1.87,4.08,2.08,9.67-1.51,13.41,2.14.47.46,1.43-.23,1.72-.79.51-.96-.51-1.29-1.34-1.68-4.58-2.14-.68-2.03,1.11-2.48,4.49,4.47,8.85,9.28,16.28,10.89,6.87,1.49,15.2,1.12,20.75-.55,11.08-3.32,22.81-7.85,26.17-18.47.31-.98,1.15-1.55,2.23-1.99,1.22,2.02,2.44,4.03,3.66,6.05-.71,3.55.97,4.72,5.74,4.16,8.26-.97,16.67-1.3,24.09-4.75.12.31.25.63.37.94-.21,1.55-.41,3.1-.63,4.65-3,1.18-5.45,3.46-9.36,2.8-1.7-.33-2.43-2.54-5.08-1.22-4.44,2.2-9.79,2.14-14.75,3.04-2.44.44-5.23.33-7.96,2.75,7.72-.92,14.28-1.71,20.83-2.49,1.82,3.35,5.58.91,8.27,1.65l-.04-.03c4.98,4.12,4.41,4.81-2.7,6.62-10.13,2.58-19.9,2.54-29.99-.17-2.95-.79-6.33,1.53-9.79,1.02,2.76,5.77-4.87,4.38-7.6,6.22-1.45.97-4.58.57-6.9.7-7.05.4-14.16.29-21.24.33-1.09,0-1.72-.66-2.01-1.46,5.78-2.53,12.97-1.39,19.12-3.99-2.81-1.91-4.98-.37-7.14,0-5.62.94-11.09,2.29-17.03,1.27-9.87-1.69-14.97-7.54-20.24-13.31Zm7.51,2.43c.14-.26.47-.57.37-.75-.1-.18-.61-.24-.94-.35-.14.26-.47.57-.38.75.09.18.61.24.95.35Z"/>
          <path class="cls-11" d="m156.07,271.57c5.27,5.77,10.37,11.62,20.24,13.31,5.93,1.01,11.41-.33,17.03-1.27,2.16-.36,4.33-1.9,7.14,0-6.15,2.6-13.34,1.46-19.12,3.99-.44.2-.88.39-1.33.59-2.34.28-4.96-2.09-7.07.44-1.14.05-2.27.1-3.41.15-6.53-1.08-12.51.13-18.18,2.62-1.14.04-2.28.08-3.42.12-3.47-.22-7.21-1.78-10.04,1.2-3.17.06-6.33.12-9.5.18,1.22-3.67,7.14-.9,9.07-4.17-8.07.67-15.88,1.31-23.23,3.76-10.77,1.06-21.55,2.08-32.43,1.42-2-.12-4.41.74-6.01-.98,4.58-.07,9.15-.13,13.73-.22,11.81-.22,21.15-5.85,31.76-8.68,1.12-.57,2.35-.59,3.62-.41.62.8,1,.17,1.44-.14,5.76-1.76,11.92-1.9,17.93-2.59,1.48-.17,3.91-.88,4.43,1.16.41,1.6-1.26,2.5-2.88,3.14-1.68.66-3.49,1.14-6.24,2.01h21.75c-2.88-1.99-8.88-1.54-6.92-6.25,1.25-2.99-.62-6.41,1.6-9.38Z"/>
          <path class="cls-3" d="m121.32,284.04c-10.61,2.84-19.95,8.47-31.76,8.68-4.58.08-9.15.14-13.73.22-.91-2.17-1.61-4.16,3.02-3.89,1.55.09,1.59-1.06,1.48-2,13.8.07,27.45-1.07,41-3.01Z"/>
          <path class="cls-11" d="m253.37,272.71c-6.56.78-13.11,1.57-20.83,2.49,2.73-2.42,5.52-2.31,7.96-2.75,4.96-.9,10.31-.84,14.75-3.04,2.65-1.32,3.38.89,5.08,1.22-1.81,1.71-4.64,1.39-6.96,2.08Z"/>
          <path class="cls-3" d="m114.28,292.5c7.35-2.45,15.16-3.09,23.23-3.76-1.94,3.26-7.85.5-9.07,4.17-4.73-.03-9.48.66-14.16-.4Z"/>
          <path class="cls-3" d="m151.39,291.41c5.67-2.49,11.65-3.7,18.18-2.62-5.78,2.04-11.68,3.57-18.18,2.62Z"/>
          <path class="cls-3" d="m137.93,292.72c2.83-2.97,6.57-1.41,10.04-1.2-2.9,2.64-6.63,1.09-10.04,1.2Z"/>
          <path class="cls-3" d="m172.97,288.64c2.11-2.53,4.73-.16,7.07-.44-2.03,3.28-4.71.3-7.07.44Z"/>
          <path class="cls-3" d="m261.64,274.36c.15-.13.31-.27.46-.4-.03.08-.02.19-.09.23-.12.07-.28.1-.42.14,0,0,.04.03.04.03Z"/>
          <path class="cls-10" d="m269.95,262.24c-7.42,3.45-15.83,3.78-24.09,4.75-4.77.56-6.45-.61-5.74-4.16,2-1.32,2.1-3.19,2.44-4.99,2.39-12.64,4.35-25.29,2.36-38.1,1.2-.32,1.51-1.26,1.1-1.85-3.47-4.98.98-5.12,5.36-5.39,6.56-.4,13.12-.84,19.68-1.26,2.95-.14,4.99-2.95,8.41-1.71-2.89,2.8-2.49,6.2-2.83,9.44-1.39,13.14-2.79,26.27-4.02,39.42-.16,1.75-1.9,2.53-2.67,3.85Z"/>
          <path class="cls-11" d="m279.47,209.53c-3.42-1.25-5.46,1.57-8.41,1.71.2-2.39-.74-4.73-.12-7.19.37-1.48.82-2.61,2.53-3.24,1.97-.72,2.6,1.1,3.69,1.63,2.57,1.26,3.1,3.81,3.46,6.14.2.73-.33.94-1.14.95Z"/>
          <path class="cls-2" d="m282.48,202.19c-.7.69-1.41.75-2.12,0,.7,0,1.41,0,2.12,0Z"/>
          <path class="cls-7" d="m171.03,266.89c-1.79.45-5.69.34-1.11,2.48.83.39,1.85.71,1.34,1.68-.3.56-1.25,1.24-1.72.79-3.74-3.65-9.33-.06-13.41-2.14,0,0-.21.11-.21.11-.05-.69-.1-1.37-.15-2.06-.68-7.36-.65-14.71.52-22.05,4.11-2.51,2.81-6.27,3.3-9.48.37-2.43.92-4.82,1.66-7.17.51-1.64,2.24-2.99,4.38-3.5,2.44-.57,2.55,1.47,3.68,2.38.51.41,1.26.63,1.9.94-.67.33-1.34.66-2.02.99-1.72.28-2.97.68-.85,1.96-2.19,1.43-2.61,3.58-3.75,5.44-1.34,1.45-2.36,2.81-2.74,4.79-.43,2.23,1.08,4.64-.29,6.43-3.76,4.9-1.32,9.79-.68,14.68.14,1.07,1.82,3.08,2.52,2.41,2.45-2.35,4.78.29,6.97-.39.22.57.44,1.14.65,1.71Z"/>
          <path class="cls-7" d="m65.42,223.46c2.99.34,4.57-1.18,6.42-3.73.16,2.5.26,4.07.37,5.64-2.62.13-5.16.07-6.79-1.92Z"/>
          <path class="cls-11" d="m155.77,267.74c.05.69.1,1.37.15,2.06-2.26-.59-2.53-1.27-.15-2.06Z"/>
          <path class="cls-3" d="m126.38,283.49c-.44.31-.82.94-1.44.14.48-.05.96-.09,1.44-.14Z"/>
          <path class="cls-10" d="m171.03,266.89c-.22-.57-.44-1.14-.65-1.71,0-1.43-.41-2.65-2.61-2.9.91-2.61.06-5.21-.02-7.81,10.98.28,21.65-1.03,32.15-3.38-10.89-1.56-21.5.2-32.16,1.1.46-3.07.92-6.13,1.38-9.2-1.63-1.66-3.79-3.13-3.46-5.53,0-.04-.7-.13-1.07-.2,1.15-1.86,1.57-4.01,3.75-5.44,1.29.02,2.77.44,3.33-.99.59-1.32,2.64-2.08,2.42-3.72l-.04.04c1.27-.33.98-.65,0-.97l.04.04c.16-2.04,2.68-3.01,3.59-4.72.87,2.6,3.76,2.33,6.25,2.63,3.33-.88,6.86-1.63,5.96-5.33l-.02.1c1.29,3,3.77.86,5.04.35,14.02-5.61,26.41-3.45,37.8,4.32l-.07-.05c4.86,6.49,8.15,13.29,7.29,20.98-.47,4.22-2.03,8.24-3.48,12.28-1.08.44-1.92,1.01-2.23,1.99-3.36,10.62-15.09,15.15-26.17,18.47-5.55,1.66-13.88,2.04-20.75.55-7.43-1.61-11.79-6.41-16.28-10.89Zm2.07-31.27c1.15-.34,1.05-1.15,1.17-1.87,2.2-.83,2.97-2.24,3.45-4.37-3.1.7-3.72,2.31-4.57,3.76-.42.64-.83,1.28-1.25,1.93-.16.76-.96,1.61.54,2.11.22-.52.44-1.03.66-1.55Z"/>
          <path class="cls-7" d="m236.45,256.78c1.45-4.05,3.01-8.07,3.48-12.28.86-7.68-2.43-14.49-7.29-20.98,1.4-.61,3.78.75,4.42-1.18.25-.76-.79-1.38-1.78-1.48-2.91-.31-2.09,1.59-2.57,2.72-11.38-7.77-23.78-9.93-37.8-4.32-1.28.51-3.75,2.65-5.04-.35,5.38.44,4.18-5.59,9.92-5.1-3.46-2.84-6.21-.58-8.94-.5.92-4.49,6.68-4.71,10.2-6.91,4.82,6.09,6.8.66,10.32-1.18,3.47-1.81,8.61,2.98,7.99,7.27.95.61,1.27-.39,1.83-.43,2-.17,1.27-3.52,3.93-2.24,3,1.44.14,2.39-1.03,3.43-.54.48-.74,1.17.22,1.54.98.38,2.04.21,2.69-.44,4.87-4.85,7.74-2.71,10.95,1.42,1.37,1.77,4.59,2.68,6.96,3.98,1.99,12.8.03,25.46-2.36,38.1-.34,1.8-.44,3.67-2.44,4.99-1.22-2.02-2.44-4.03-3.66-6.05Zm.33-30.4c2.32,2.14,3.66,3.39,5.35,4.95.7-3.09-1.06-4.07-5.35-4.95Zm-26.92-13.81c-.27-.88-1.02-1.29-2.13-1-.43.11-.98.61-.97.93.03.84.75,1.36,1.89,1.36,1.08,0,1.12-.66,1.21-1.29Zm17.98,6.04c.2-.16.86-.47.83-.72-.12-1.06-1.42-1.22-2.41-1.54-.66-.21-1.1.14-.92.67.29.86.71,1.7,2.5,1.59Z"/>
          <path class="cls-10" d="m253.28,191.88c3.15-.08,6.31-.31,9.45-.16,1.23.06,4.13-.84,3.29,1.8-7.18.05-14.25,3.2-21.58.4-.73-.28-2.13.5-3.22.79-4.54,1.22-7.24.68-5.98-3.69.15-1.27,1.22-2.42,2.59-1.53,2.52,1.63,4.7,2.01,7.33.43.78-.47,1.55-.39,1.87.35,1.17,2.71,3.86,1.77,6.24,1.62Z"/>
          <path class="cls-11" d="m190.86,213.3c2.73-.08,5.48-2.34,8.94.5-5.74-.5-4.53,5.54-9.92,5.1,0,0,.02-.11.02-.11-4.37.19-6.72,1.73-5.96,5.33-2.49-.3-5.39-.03-6.25-2.63,2.28-4.76,8.08-6.14,13.18-8.19Z"/>
          <path class="cls-11" d="m225.65,193.8c1.71.29,4.25-.76,4.66,1.64.08.5.32,1.5-.87,1.34-2-.28-3.94-1.18-6.19,1.5v-5.41c.8.31,1.6.62,2.4.93Z"/>
          <path class="cls-7" d="m188.82,212.13c-3.55-.18-5.45,1.47-7.8.64-.87-.31-.43-1.14.18-1.48,2.07-1.16,4.18-1.21,7.62.84Z"/>
          <path class="cls-11" d="m174.1,227.11c.21,1.64-1.83,2.39-2.42,3.72-.84-.31-2.19.17-2.49-.97.67-.33,1.34-.66,2.02-.99.35-.81.14-1.99,2-1.77,0,0,.45-.06.45-.06l.44.08Z"/>
          <path class="cls-10" d="m225.65,193.8c-.8-.31-1.6-.62-2.4-.93.82-1.68,2.55-.73,3.92-.8-.51.58-1.01,1.16-1.52,1.73Z"/>
          <path class="cls-10" d="m220.86,196.58v-3.01c1.43,1.44,1.76,2.28-.08,2.96l.08.05Z"/>
          <path class="cls-7" d="m208.49,202.29c-.13.03-.27.06-.4.09-.05-.12-.13-.25-.12-.37,0-.04.25-.06.38-.09.04.12.09.25.13.37Z"/>
          <path class="cls-10" d="m174.1,227.11l-.44-.08s-.45.06-.45.06c-.24-.61.06-.9.88-.89,0,0-.04-.04-.04-.04,0,.32,0,.65,0,.97l.04-.04Z"/>
          <path class="cls-10" d="m220.79,196.53l-.08.74c-.24-.09-.47-.18-.71-.26.29-.14.58-.28.87-.42,0,0-.08-.05-.08-.05Z"/>
          <path class="cls-11" d="m84.34,198.5c1.68-1.1,3.7-1.56,5.81-1.87,3.83-.21,8.46,2.2,11.06-2.02,1.56.07,3.11.14,4.67.22-.3,1.23-.97,2.24-2.62,2.67-1.12.31-2.23.62-3.35.93-2.6.3-5.6-.34-7.39,1.87-.07-.11-.11-.23-.21-.32-.06-.05-.2-.03-.31-.05.2.11.39.21.59.32.52,2.01,1.88,2.62,3.38.72.82-1.04,1.34-1.13,2.5-.76.73,2.15,2.93,2.8,5.38,2.74,2.28-.05,1.67-1.76,2.1-2.84.68.09,1.36.19,2.04.28-.57,4.1-2.77,6.65-8.85,6.69-5.05.03-9.5,2.98-15,2.33.99-1.61,3.88-.83,4.67-2.44-2.94-.22-.41-4.66-4.83-3.74-.97-.39-1.93-.77-2.9-1.16l-.02-.08c.69-.81,1.76-1.01,2.91-1.08,1.88.15,3.76.32,5.74-.47-1.56-1.45-3.14-.96-4.63-.88-.32-.08-.64-.14-.96-.2.05-.29.13-.58.23-.86Z"/>
          <path class="cls-11" d="m123.39,198.83c-.87,2.02-3.75,2.9-2.84,5.07.69,1.66-.78,2.11-2.13,1.44-1.42-.71-4.69.89-4.33-2.24.46-4.06,2.1-5.01,9.3-4.28Z"/>
          <path class="cls-1" d="m81.07,202.08c.97.39,1.93.77,2.9,1.16-.05,1.99-1.6,2.8-3.89,2.52-3.55-.43-2.34-2.97-3.11-4.63-.01-.91-.02-1.82-.04-2.73.78-.01,1.56-.02,2.34-.04,0,0,.07.05.07.05,1.25,1.35,3.11.83,4.77.93.32.06.64.12.96.2-.37.45-.74.91-1.11,1.36-1.15.07-2.22.27-2.91,1.07-.32-.3-.64-.6-.97-.89-.09.09-.18.18-.26.26.42.24.84.48,1.25.72Z"/>
          <path class="cls-11" d="m82.35,219.89c-1.89-.89-3.82-1.74-4.23-3.47-.35-1.48.5-2.85,2.65-3,1.74-.13,4.7.97,3.81,1.73-1.72,1.46.57,3.74-2.24,4.75Z"/>
          <path class="cls-7" d="m103.25,197.5c1.65-.43,2.33-1.44,2.62-2.67.33-.08.67-.09,1.01-.04.14,1.23,1.56,1.59,2.49,2.31,1,.79,3.45,1,2.79,2.46-.61,1.34-2.78.48-4.19.83-.68-.09-1.36-.19-2.04-.28-.89-.87-1.79-1.74-2.68-2.62Z"/>
          <path class="cls-7" d="m124.89,189.25c2.9.45,6.32-.73,8.6,1.65-5.65,3.2-6.94,2.95-8.6-1.65Z"/>
          <path class="cls-11" d="m72.19,207.71c.36-.12.74-.19,1.13-.19,1.63,2.82,4.72-.97,7.45,1.69-3.59-.06-6.5,2.02-8.58-1.49Z"/>
          <path class="cls-11" d="m133.88,212.55c1.19,1.85-.41,4.61,3.78,4.74q-4.6.16-3.78-4.74Z"/>
          <path class="cls-11" d="m127.55,213.06c-.74.36-1.33.82-1.61.73-.65-.21-1.46-.61-1.66-1.08-.31-.71.44-1.14,1.33-.87.65.19,1.14.7,1.93,1.22Z"/>
          <path class="cls-1" d="m66.08,205.87c2.11-.17,3.95.09,4.87,1.81-2.16.26-3.82-.29-4.87-1.81Z"/>
          <path class="cls-10" d="m111.15,215.45c.27.14.53.24.71.4.07.07-.02.28-.11.4-.28.39-.65.4-.83-.02-.09-.21.13-.49.22-.78Z"/>
          <path class="cls-11" d="m195.39,169.26c-.75,1.5-1.67,2.58-3.92,2.28-1.01-.13-2.53-.66-2.2-1.09.8-1.06,2.1-2.1,3.52-2.59.93-.33,2.9-.15,2.61,1.41Z"/>
          <path class="cls-7" d="m101.2,194.62c-2.6,4.21-7.23,1.81-11.06,2.02-.01-1.19-.02-2.38-.04-3.57,3.88-.24,7.81-.73,11.09,1.56Z"/>
          <path class="cls-3" d="m260.59,182.81c.08,1.53-2.33,1.78-2.67,3.1-1.06.11-1.74.5-1.77,1.39,0,0,.15,0,.15,0-.71-1.69-2.65-1.17-4.18-1.39.18-1.23-.68-2.79,1.76-3.3,2.24.07,4.47.13,6.71.2Z"/>
          <path class="cls-10" d="m252.12,185.91c1.53.21,3.47-.31,4.18,1.39-5.71,1.07-11.13.26-16.44-1.22,4.14-1.06,8.19-.19,12.26-.17Z"/>
          <path class="cls-10" d="m235.43,184.49c.39.08.91.07,1.05.23.53.65-.32.62-.72.64-.31.01-.63-.23-.95-.35.21-.18.42-.35.62-.52Z"/>
          <path class="cls-10" d="m256.15,187.3c.03-.89.71-1.28,1.77-1.39.41.45.82.9,1.23,1.35-.32.08-.65.16-.98.23-.67-.06-1.34-.13-2.02-.19Z"/>
          <path class="cls-2" d="m162.01,166.04c.73.22,1.46.43,2.19.65-.9.12-1.78.21-2.19-.65Z"/>
          <path class="cls-2" d="m244.16,177.31c.58-.3.92-1.02,1.89-.64-.56.3-1.11.59-1.68.89,0,0-.21-.25-.21-.25Z"/>
          <path class="cls-7" d="m84.11,199.36c-1.66-.1-3.52.42-4.77-.93,1.67.03,3.33.05,5,.08-.11.28-.19.57-.23.86Z"/>
          <path class="cls-7" d="m163.58,274c-.33-.11-.85-.17-.94-.35-.09-.18.23-.5.38-.75.33.11.85.16.94.35.1.18-.23.5-.38.75Z"/>
          <path class="cls-11" d="m164.59,237.26c.37.07,1.08.16,1.07.2-.33,2.4,1.83,3.87,3.46,5.53-2.93.69-2.39,2.95-3.34,4.51-2.12,3.44-.34,7.36-1.71,10.78-1.3,3.27.36,3.82,3.7,4,2.2.26,2.61,1.47,2.61,2.9-2.19.68-4.52-1.96-6.97.39-.7.67-2.38-1.33-2.52-2.41-.64-4.89-3.08-9.78.68-14.68,1.37-1.79-.14-4.21.29-6.43.38-1.99,1.4-3.34,2.74-4.79Z"/>
          <path class="cls-3" d="m169.19,229.86c.3,1.13,1.65.66,2.49.97-.56,1.43-2.05,1.01-3.33.99-2.12-1.27-.87-1.67.85-1.96Z"/>
          <path class="cls-3" d="m167.74,252.19c10.66-.9,21.27-2.67,32.16-1.1-10.5,2.35-21.17,3.65-32.15,3.38-.76-.76-1.35-1.51-.01-2.27Z"/>
          <path class="cls-7" d="m167.74,252.19c-1.34.76-.75,1.52.01,2.27.07,2.6.93,5.21.02,7.81-3.33-.17-5-.73-3.7-4,1.36-3.41-.41-7.33,1.71-10.78.96-1.56.41-3.82,3.34-4.51-.46,3.07-.92,6.13-1.38,9.2Z"/>
          <path class="cls-7" d="m183.93,224.12c-.76-3.6,1.58-5.15,5.96-5.33.9,3.7-2.63,4.45-5.96,5.33Z"/>
          <path class="cls-7" d="m173.14,233.13c.85-1.45,1.47-3.06,4.58-3.76-.48,2.13-1.25,3.54-3.45,4.37-.37-.2-.75-.41-1.12-.61Z"/>
          <path class="cls-7" d="m174.26,233.74c-.11.73-.01,1.53-1.17,1.87-.4-.19-.8-.37-1.21-.56.42-.64.83-1.28,1.25-1.93.37.2.75.41,1.12.61Z"/>
          <path class="cls-7" d="m173.1,235.61c-.22.52-.44,1.03-.66,1.55-1.5-.5-.71-1.35-.55-2.11.4.19.8.37,1.2.56Z"/>
          <path class="cls-11" d="m174.06,227.15c0-.32,0-.65,0-.97.98.32,1.28.65,0,.97Z"/>
          <path class="cls-3" d="m232.71,223.57c.49-1.12-.34-3.03,2.57-2.72.99.11,2.03.72,1.78,1.48-.64,1.93-3.02.57-4.42,1.18,0,0,.07.05.07.05Z"/>
          <path class="cls-3" d="m236.78,226.38c4.29.88,6.05,1.86,5.35,4.95-1.69-1.57-3.04-2.81-5.35-4.95Z"/>
          <path class="cls-3" d="m209.86,212.57c-.09.62-.14,1.28-1.21,1.29-1.14,0-1.86-.52-1.89-1.36-.01-.31.54-.81.97-.93,1.11-.29,1.86.12,2.13,1Z"/>
          <path class="cls-3" d="m227.84,218.61c-1.78.11-2.21-.73-2.5-1.59-.18-.53.26-.88.92-.67.99.32,2.29.48,2.41,1.54.03.26-.63.56-.83.72Z"/>
          <path class="cls-10" d="m103.25,197.5c.89.87,1.79,1.74,2.68,2.62-.43,1.08.18,2.79-2.1,2.84-2.45.05-4.64-.6-5.38-2.74.89-.4,1.44-.96,1.44-1.79,1.12-.31,2.23-.62,3.35-.93Z"/>
          <path class="cls-3" d="m99.9,198.43c0,.83-.56,1.39-1.44,1.79-1.16-.37-1.68-.28-2.5.76-1.5,1.9-2.87,1.29-3.38-.72l-.06.05c1.79-2.21,4.79-1.58,7.39-1.87Z"/>
          <path class="cls-3" d="m83.96,200.92c.37-.45.74-.91,1.11-1.36,1.48-.08,3.07-.56,4.63.88-1.98.8-3.86.62-5.74.47Z"/>
          <path class="cls-7" d="m81.07,202.08c-.42-.24-.84-.48-1.25-.72.09-.09.18-.18.26-.26.32.3.64.59.97.89,0,0,.02.09.02.09Z"/>
          <path class="cls-3" d="m92.57,200.25c-.2-.11-.39-.21-.59-.32.11.01.26,0,.31.05.1.09.15.21.21.32,0,0,.06-.05.06-.05Z"/>
        </g>
        <g>
          <path class="cls-5" d="m202.01,203.81c-.08-.05-.16-.1-.23-.15.08.05.16.1.23.15Z"/>
          <path class="cls-4" d="m215.21,202.09c-.14.11-.24.06-.31-.08.1.03.21.06.31.08Z"/>
          <path class="cls-4" d="m214.89,202c-.12-.04-.25-.09-.37-.13.17-.07.29-.02.37.13Z"/>
          <path class="cls-12" d="m228.36,284.14c-1.63.07-3.04.94-4.6,1.26-.5.1-.97.24-1.48.14-.4-.03-.8-.06-1.19-.09-.46-.51-1.29-.1-1.72-.69,1.18-.98,2.61-1.53,3.99-2.11,1.49-.62,3.04-1.08,4.58-1.56.81-.25,1.88-.43,2.42.03.57.48,1.05,1.47.46,2.42-.74.52-1.68.19-2.44.6Z"/>
          <path class="cls-8" d="m181.27,251.59c.34,2.84,1.79,5.11,3.77,7.06,2.18,2.15,4.08,4.5,5.54,7.19.06.11.2.19.3.28.25.92.51,1.82.55,2.81.05,1.39.87,1.78,2.14,1.13.69-.35,1.35-.76,2.02-1.14,2.35-.11,4.31.84,6.17,2.17.54.38.6.63.21,1.08-.12.14-.22.31-.36.43-.43.36.46,1.22-.33,1.24-.62.01-1.3-.42-1.87-.79-.39-.26-.56-1.02-1.19-.61-.68.43-.5,1.22-.3,1.79.77,2.15,1.81,4.18,3.46,5.81.63.62,1.55,1.54,1.16,2.11-.42.61-1.63.24-2.45-.18-1.09-.55-2.27-.58-3.42-.42-3.67.51-6.32-1.08-8.72-3.71-2-2.19-4.46-3.86-7.02-5.44-2.42-1.5-4.82-3.13-7.07-4.92-.61-.49-.94-1.16-.57-1.84.38-.72,1.06-.2,1.62-.11,2.62.42,5.25.75,7.79-.38.3-.13.82-.13.76-.66-.05-.51-.5-.67-.89-.78-.76-.2-1.51-.45-2.33-.41-1.44.07-2.47-.95-3.59-1.58-.96-.54-1.02-1.65-.61-2.71.34-.85.32-1.55-.51-2.22-1-.81-.89-2.03-.89-3.2,0-2.77-.64-5.5-.37-8.29.14-1.44.62-2.74,1.4-3.88.62-.9,1.19-1.77,1.4-2.84.26-1.36,1.1-2.49,1.36-3.88.27-1.43,1.52-2.27,2.57-3.19,2.09-1.83,4.37-3.4,6.67-4.93.42-.28.93-.69,1.52-.22-1.08,2.12-1.74,4.38-2.28,6.69,0,.88-.95,1.14-1.19,1.86-1.68.51-2.66,1.78-3.47,3.22-2.05,3.62-2.02,7.55-1.62,11.51.07.67.06,1.41.63,1.94Z"/>
          <path class="cls-8" d="m214.37,287.21c-1.27-.02-2.48-.37-3.69-.71-1.41-.39-2.6-.5-4.08.24-2.27,1.14-4.79.85-7.28-.1.6-.87,1.56-.82,2.35-.88,1.15-.09,2.17-.27,3.03-1.14.73-.74,1.66-.67,2.61-.33,2.37.85,4.75,1.58,7.34,1.47,1.28-.05,2.47-.28,3.6-.85.37-.05.73-.1,1.1-.15.43.59,1.26.18,1.72.69-2.15.92-4.31,1.8-6.71,1.76Z"/>
          <path class="cls-8" d="m199.5,217.97c-.11-1.62.85-3.14.45-4.8-.06-.23.35-.2.58-.18.1.91.19,1.81.32,2.71.16,1.13-.09,1.99-1.35,2.27Z"/>
          <path class="cls-4" d="m248.83,246.61c0,.09-.04.16-.12.21-.07-.13-.02-.2.12-.21Z"/>
          <path class="cls-9" d="m214.37,287.21c2.4.04,4.56-.84,6.71-1.76.4.03.8.06,1.19.09-.92.77-1.99,1.28-3.11,1.61-7.11,2.07-14.35,3.56-21.78,3.33-3.56-.11-7.16.11-10.71-.49-.32-.05-.66,0-.91-.27,2.97-1.72,6.05-3.02,9.61-2.6.55.06.9,0,.9.82,0,.94.66,1.45,1.69,1.44,3.29-.01,6.53-.21,9.77-.98,1.69-.4,3.54-.48,5.31-.7.48-.06,1.07.2,1.32-.48Z"/>
          <path class="cls-9" d="m169.37,270.16c.48-.12.75.09.69.57-.24,1.92,1.12,2.96,2.31,3.99,1.78,1.55,4.14,2.25,5.99,3.69,1.96,1.53,4.43,2.56,5.42,5.14.17.44.59.83-.2,1.05-1.78-2.16-3.66-4.19-6.16-5.56-1.21-.66-2.55-.95-3.72-1.77-2.52-1.76-4.11-3.98-4.33-7.1Z"/>
          <path class="cls-9" d="m184.42,286.84c.94-.01.81.68.78,1.25-.03.49-.16.98-.24,1.47-1.03-.74-.46-1.79-.54-2.72Z"/>
          <path class="cls-9" d="m184.05,285.48c.27,0,.61-.12.73.22.12.34-.21.46-.45.6-.24-.22-.29-.51-.28-.82Z"/>
          <path class="cls-9" d="m163.7,261.63c.61.08.81.48.82,1.04-.48-.18-.74-.54-.82-1.04Z"/>
          <path class="cls-9" d="m169.03,268.1c.63.21.63.5.09.84-.23-.26-.2-.55-.09-.84Z"/>
          <path class="cls-9" d="m165.52,263.65c.4-.05.63.12.64.54-.33-.04-.55-.21-.64-.54Z"/>
          <path class="cls-9" d="m162.95,260.58c.41.06.43.38.46.69-.32-.12-.4-.4-.46-.69Z"/>
          <path class="cls-8" d="m199.77,254.65c-.92-1.46-2.29-2.52-3.38-3.83-1.8-2.13-3.96-3.94-5.62-6.19-.51-.7-.85-1.52-1.3-2.34.57-.31,1.12.64,1.64-.11.43-.62.05-1.15.03-1.73-.04-1.07-.6-1.91-1.31-2.54-.72-.65-.76-1.31-.61-2.12.16-.87.41-1.73.47-2.6.06-.84.81-.96,1.2-1.43,1.55-1.87,3.9-2.62,5.78-4.04,1.43-1.08,3.18-1.2,4.97-.18,1.25.71,2.8.16,4.04-.33,2.22-.87,4.3-2.19,6.61-2.79,1.75-.45,3.53-.98,5.41-.89,1.18.06,2.32,1.91,2.76,3.29.13.41-.05,1.09.62,1.05.64-.04.47-.68.51-1.12.02-.19-.03-.38.01-.56.14-.68-.44-1.7.47-1.99,1.08-.34,2.31-.47,3.35.25,1.98,1.39,2.63,3.37,1.78,5.66-.26.7,0,1.29.05,1.9.16,2.08.01,4.18.9,6.22.52,1.2.25,2.71.72,4.04.48,1.33.52,2.79,1.06,4.12.51,1.26.36,2.35-.58,3.46-.59.69-1.39,1.5-1.05,2.66.07.23,0,.56-.22.61-1.86.38-1.61,2.06-1.96,3.29-.73,2.52-2.33,4.28-4.47,5.63-.66.42-1.41.7-2.09,1.1-.69.41-1.15,1.05-.93,1.86.2.71.79,1.05,1.59,1.13,2.72.27,5-.83,7.14-2.3.62-.43,1.24-.49,2.16-.82-.58,1.02-1.13,1.53-1.85,2.05-2.06,1.48-4.31,2.5-6.62,3.47-.57.24-1.14.38-1.74.47-.22.03-.49.2-.64-.06-1.32-2.26-3.74-3.17-5.82-4.21-3.48-1.75-6.49-4-9.28-6.64-1.15-1.08-2.35-2.11-3.52-3.16-.09-.09-.19-.19-.28-.28Zm17.09-21.25l-.04-.04c-.08-.08-.17-.15-.25-.23-.81-.43-1.54-1-2.44-1.25-1.13-1.88-4.87-2.68-7.25-1.46-.53.28-1.34.3-1.69,1.19h3.59c.34.04.69.08,1.03.13.26.48.56.89,1.19.52.17.02.34.03.5.05.99,1.01,2.32,1.46,3.54,2.08,3.32,1.68,5.75,4.35,7.41,7.52,1.38,2.62,1.62,5.58.14,8.43-.2.38-.69,1.01-.08,1.36.71.4.77-.43,1.02-.81,1-1.5,1.29-3.29,1.63-4.97.25-1.21.74-2.78-.58-3.9-.07-.27-.1-.56-.22-.8-1.55-3.03-4.33-4.99-6.54-7.45-.12-.14-.44-.1-.66-.15-.1-.08-.2-.15-.3-.23Zm-3.1,17.28c-.17,0-.34,0-.52,0-.26-.26-.6-.28-.91-.21-2.68.56-5.36.19-8.03-.06.23-5.27.1-10.58,1.8-15.67.16-.49.4-1.16,0-1.44-.55-.39-.8.4-1.18.67-.23.16-.42.36-.63.55-.48-.04-.78.27-1.06.58-2.42,2.7-5.3,5.02-6.51,8.66-.52,1.57-.53,2.87.79,3.62,1.04.59,1.7,1.53,2.62,2.22,1.04.78,1.66,1.92,2.24,3.13.8,1.65,1.59,3.34,2.76,4.8.14.18.27.43.54.35.31-.09.27-.39.15-.57-1.14-1.74-1.22-3.77-1.56-5.72,0-.09.02-.18.03-.26.59-.09.91.28,1.3.63.68.61,1.43,1.24,2.4,1.27,1.38.04,2.64.49,3.83,1.04,2.88,1.32,5.77-.63,7.54-3.26,1.27-.27,1.37-1.63,2.18-2.35.5-.44,1.22-1.3.69-1.87-.53-.57-1.13.39-1.7.66-1.15.11-2.13.66-3.03,1.33-1.15.85-2.66.99-3.75,1.94Zm-5.61-11.88c.97.47,1.64.76,2.32,1.05,2.17.93,3.86,2.36,4.42,4.8.11.48.04,1.22.71,1.13.63-.09.44-.82.44-1.31,0-.27-.08-.55-.15-.82-.84-2.96-4.48-5.34-7.73-4.85Zm-.76,1.79c-.78,2.71,2.49,6.15,5.55,5.76-2.57-1.35-4.43-3.12-5.55-5.76Z"/>
          <path class="cls-9" d="m199.77,254.65c.09.09.19.19.28.28.3,1.19,1.05,2.08,1.91,2.92.65.64,1.54,1.11,1.49,2.22-.02.39.47.84-.01,1.15-.45.28-.96.02-1.46-.05-2.64-.36-3.85-2.51-5.32-4.25-1.71-2.03-3.74-3.69-5.61-5.54-1.01-1-2.1-1.66-3.47-2.04-1.15-.32-1.98-1.24-2.86-2.04-.98-.89-1.78-.59-2.59.42-.98,1.21-.62,2.58-.85,3.87-.58-.52-.56-1.26-.63-1.94-.4-3.97-.43-7.89,1.62-11.51.81-1.43,1.79-2.71,3.47-3.22-.45,1.14-.88,2.28.36,3.24.06.05.1.17.1.26-.01,2.16,1.16,3.74,2.27,5.48.97,1.52,2.22,2.76,3.44,3.93,2.17,2.07,4.19,4.3,6.48,6.24.38.33.81.65,1.38.58Z"/>
          <path class="cls-9" d="m235.37,235.42c.53-2.92-1.72-8.22-3.48-9.3-2.87-1.76-5.47-4.06-9.24-3.6,1.64-.49,3.24-.5,4.82-.03,3.03.89,5.52,2.51,7.25,5.27,1.23,1.97.94,4.22,1.46,6.31.05.22-.08.54.04.69,1.9,2.52.9,5.65,1.77,8.4.47,1.5.99,2.88,2.25,3.9.43.35.85.77.64,1.43-.11.35-.4.52-.75.52-.63,0-.96-.36-1.25-.92-.47-.91-1.41-1.33-2.27-1.78-1.05-.55-1.78-1.61-2.61-2.17-1.37-.93-1.22-3.07-3.1-3.34-.32-.04-.29-.43-.29-.71,0-1.85,0-3.7-.03-5.56-.01-.85.15-1.67,1.01-1.95.97-.32,1.82.06,2.43.92.4.57.8,1.13,1.35,1.91Z"/>
          <path class="cls-9" d="m195.59,268.93c-.67.38-1.33.79-2.02,1.14-1.27.65-2.09.26-2.14-1.13-.04-.99-.3-1.89-.55-2.81,1.08-.21,1.9.5,2.84.79.35.11.54.43.32.77-.93,1.44.17,1.23,1,1.25.18,0,.37,0,.55,0Z"/>
          <path class="cls-9" d="m209.28,274.5c.83-.33,1.44-.54,2.09-.54.57,0,1.1-.24,1.19-.77.32-1.86,2.17-1.21,3.15-1.98.15-.12.45.06.52.32.1.35-.06.62-.26.89-1.2,1.67-4.35,2.73-6.7,2.08Z"/>
          <path class="cls-9" d="m165.5,258.96c-.01.25-.12.38-.26.31-.14-.07-.28-.22-.34-.37-.05-.14.09-.28.24-.22.15.06.26.2.35.27Z"/>
          <path class="cls-9" d="m164.21,257.72c.17.03.37.03.4.25,0,.04-.1.15-.15.15-.22-.04-.23-.23-.25-.4,0,0,0,0,0,0Z"/>
          <g>
            <path class="cls-9" d="m235.23,274.49c-1.87,1.52-1.7,3.58-1.45,5.64.13,1.01.58,2.1-1.25,1.59-.84-.23-.49.56-.54.92-.14,1.1-.18,1.15-1.18.9.59-.95.11-1.94-.46-2.42-.54-.46-1.61-.28-2.42-.03-1.54.48-3.09.95-4.58,1.56-1.39.57-2.81,1.12-3.99,2.11-.37.05-.73.1-1.1.15-.12-.89,1.13-2.31,2.39-2.48.77-.11,1.28-.47,1.77-.98,1.03-1.09,2.48-1.66,3.81-1.74,1.15-.07,2.26-.25,3.4-.38,1.13-.13,1.44-.82,1.53-1.8.13-1.28-.9-2.63.24-3.85.06-.06-.03-.27-.05-.4-.21-1.29-.44-2.58-1.08-3.73-.39-.7-.5-1.22-.03-2.01.55-.92,1.14,0,1.63-.19.27-.8-.92-1.47-.14-2.14,1.45-1.23,2.15-3.27,4.18-3.88.37-.11.65-.51.96-.8.31-.29.62-.53,1.08-.58,1.67-.19,1.64-.2,1.61-1.85-.04-2.01-.32-3.94-1.6-5.59-.35-.45-.45-1,.09-1.35.66-.44.84.17,1.1.62,1.02,1.84,1.58,3.83,2.1,5.85.08.32.07.68.46.77.28.06.44-.19.49-.4.47-2.37,2.01-4.26,2.92-6.43.92-2.2.1-4.26-.33-6.37-.26-1.27-1.51-1.09-2.2-1.7-.14-.12-.3-.24-.4-.39-.92-1.35-2.66-1.78-3.51-3.3-.37-.67-.54-.86.02-1.42.91-.92,1.55-2.41,1.23-3.36-.67-2.01-.99-4.13-1.81-6.08-.94-2.24-1.54-4.61-3-6.65-1.18-1.65-2.63-2.99-4.06-4.38-1.22-1.18-2.78-2.03-3.36-3.85-.31-.96-.96-1.85-2.36-1.74-1.27.1-2.56-.03-3.83-.16-2.59-.26-5.09-1.32-7.77-.94-.3.04-.65-.06-.94-.18-2.31-.99-4.48-1.12-6.54-.3-.56.22-.93.66-.59,1.31.13.25.34.49.21.77-.74,1.61.62,1.27,1.23,1.14,1.67-.35,3.35-.27,5.02-.18,2.03.11,4.07.44,5.94,1.3,1.41.64,1.99,1.9,1.6,2.99-1.29-1.18-2.15-1.34-3.71-.4-1.01.6-2.15.34-3.06.29-1.53-.08-1.56-.42-1.59,1.2-.02.86-.32,1.23-1.17,1.4-.97.19-2,.17-2.78,1.07-.47.54-3.19.32-3.57-.1-1.25-1.34-2.19-1.45-3.57-.41-.33.25-.66.64-1.03.68-3.27.4-5.45,3-8.37,4.09-.15.06-.29.26-.34.42-.63,1.94-1.94,3.55-2.75,5.4-.2.46.02,1.21-.77,1.34.54-2.3,1.2-4.56,2.28-6.69,1.09-.56,1.16-1.85,1.92-2.66,1.66-1.79,3.66-3.08,5.79-4.22.88-.47,1.87-.78,2.6-1.53,1.26-.28,1.51-1.13,1.35-2.27-.13-.9-.22-1.81-.32-2.71.03-1.07.07-2.14.09-3.21,0-.35.13-.84-.35-.95-.55-.13-.68.35-.81.75-.43,1.32-.16,2.74-.74,4.07-.43.98-1.31,1.76-2.34,1.43-2.42-.77-4.84-1.52-7.43-1.3-1.38.12-2.74-.53-4.16.17-.71.35-1.37.73-2.04,1.14-.29.18-.87.15-.68.67.15.42.68.28,1,.21,3.16-.66,6.05.31,8.91,1.44,1.39.55,2.5,1.47,2.75,2.31-2.74-1.52-5.14-.73-7.43.85-.75.52-.93,1.55-1.56,2.06-2.39,1.95-4.24,4.59-7.26,5.74-.19.07-.41.28-.47.47-.35,1.2-1.34,1.73-2.32,2.25-2.14,1.14-4.7,1.41-6.52,3.22-.11.11-.4.18-.52.12-1.08-.57-2.27.27-3.39-.35-.77-.42-.91.4-.71.84.89,1.93.38,4.02.74,6.01.28,1.5.52,3.1-.29,4.58-.14.26-.15.52-.06.81.31,1.01,0,1.91-.48,2.81-.75,1.42-1.03,2.93-1.15,4.55-.11,1.5,1,2.61.9,4.04h0c-.7-.14-.92-.76-1.18-1.28-.31-.62-.49-1.3-.75-1.95-.09-.22-.27-.38-.55-.31-.22.06-.34.27-.28.42.4,1.04-.09,2.28.66,3.23.6.75.78,1.56.66,2.48-.64-.41-.6-1.25-1.1-1.76-.03-.83-.81-1.38-.8-2.23.05-.42,0-.81-.3-1.13-.33-1.35-.74-2.67-1.52-3.85-.36-.72-.59-1.53-1.27-2.06-.66-1.31-1.92-2-3-2.86-.74-.59-.71-1.04-.02-1.66.89-.79,1.99-1.41,2.36-2.67.47-.63,1-1.23,1.2-2.03.34-.45.58-.94.63-1.51.31-.25.37-.6.35-.97.99-2.17.96-4.58,1.59-6.84.1-.37-.02-.74-.51-.81.11-.48,0-1.2.58-1.29,1.17-.19,1.28-1.15,1.66-1.94l-.07-.06s.07.07.07.07c.71-.25.95-.81,1-1.5.07,0,.11-.05.1-.12.59-.39,1.05-.9,1.35-1.54.47-.45.94-.9,1.42-1.35.83-.59,1.97-.82,1.99-2.22.04-3.42,1.68-6,4.35-8.04,2.29-1.75,4.55-3.56,6.36-5.84.86-1.08,1.56-2.23.97-3.7-.02-.8-.27-1.77,1.14-1.46,1.42.78,2.87,1.48,4.4,1.99.16.3.37.45.7.23.51.25,1.05.38,1.62.28.16.19.38.17.59.15.34.42.71.4,1.11.08.47,0,.93,0,1.4,0,.17.07.33.22.5.21,3.46-.02,6.84.63,10.2,1.36.77.17,1.25-.18,1.63-.78.92-.02,1.44-.79,2.17-1.16,1.29-.66,2.57-1.31,3.99-1.63.47.05.94.11,1.31-.29.23,0,.46-.02.69-.03.61.39,1.23.73,1.99.45.32.02.64.04.95.06.12.04.25.09.37.13,0,0,0,0,0,0,.07.14.17.19.31.08.24.1.49.2.73.3.41.46.88.76,1.53.59.14.07.29.15.43.22.08.11.13.25.23.34,2.37,2.14,5.29,2.8,8.35,3.1.32.03.65,0,.84-.35.16-.03.32-.05.48-.08.42.31.66.06.86-.29.57-.28.89-.81,1.3-1.25.58-.62,1.01-.53,1.07.31.09,1.23.41,1.96,1.86,1.47.61-.2.96.19.96.84,0,.14,0,.29-.04.42-1.07,3.37.19,6.1,2.38,8.56.39,1.29,1.16,2.21,2.51,2.54l.28.27c0,.37.19.56.55.59.36.56.72,1.11,1.09,1.67.01.23.09.43.3.55,1.67,2.54,1.88,5.36,1.32,8.21-.28,1.42.07,2.52.81,3.62.26.88.62,1.71,1.33,2.34.27.63.6,1.22,1.21,1.59,0,0,0,.02,0,.02.05.4.29.66.63.83.14.36.37.64.71.82.67,1.35,2.02,2.13,2.83,3.37.56.88,1.17,1.66-.01,2.55-.41.31-.62.9-.92,1.36-.14.01-.19.08-.12.21-.08.18-.16.35-.25.53-1.92,2.79-2.74,6.05-3.88,9.17-.35.94-.96,1.81-.87,2.89-.14.41-.27.82-.41,1.23-.27.18-.4.43-.32.76-.12.28-.23.55-.34.83-.15.07-.21.18-.14.34-1.74,2.88-2.89,6.15-5.57,8.41-.32.16-.48.4-.39.76-.25.37-.43.76-.42,1.22-.08.14-.17.29-.25.43-.21.37-.42.74-.63,1.11Zm-73.85-22.58c.57-.93.52-1.77.6-2.57.04-.41-.04-.91.16-1.22,1.62-2.45,1.95-5.16,1.78-8-.02-.39.18-.93-.38-1.07-.52-.12-.66.4-.87.75-1.31,2.21-2.9,4.17-5.2,5.4-.99.53-1.05,1.02-.35,1.8,1.41,1.58,3.03,2.97,4.26,4.9Z"/>
            <path class="cls-12" d="m169.37,270.16c-.08-.41-.16-.81-.24-1.22.53-.34.53-.63-.09-.84.57-2.43-1.79-2.69-2.87-3.91-.01-.42-.24-.58-.64-.54-.47-.19-.71-.62-1-.99,0-.55-.21-.95-.82-1.04-.1-.12-.2-.24-.29-.36-.03-.31-.05-.63-.46-.69-.06-.09-.12-.18-.18-.27.12-.92-.06-1.73-.66-2.48-.75-.94-.26-2.18-.66-3.23-.06-.15.06-.37.28-.42.28-.07.46.09.55.31.26.65.44,1.33.75,1.95.26.52.48,1.14,1.18,1.27.03.17.03.37.25.4.04,0,.15-.1.15-.15-.04-.22-.23-.23-.4-.25.11-1.42-1-2.53-.9-4.04.11-1.62.4-3.13,1.15-4.55.47-.9.79-1.79.48-2.81-.09-.29-.08-.55.06-.81.81-1.48.57-3.08.29-4.58-.37-1.99.15-4.08-.74-6.01-.2-.44-.06-1.26.71-.84,1.12.61,2.31-.23,3.39.35.12.06.41,0,.52-.12,1.82-1.8,4.38-2.08,6.52-3.22.97-.52,1.97-1.05,2.32-2.25.06-.19.28-.4.47-.47,3.02-1.15,4.87-3.79,7.26-5.74.63-.51.8-1.55,1.56-2.06,2.29-1.58,4.69-2.37,7.43-.85-.26-.84-1.36-1.76-2.75-2.31-2.86-1.13-5.75-2.11-8.91-1.44-.32.07-.85.2-1-.21-.19-.52.38-.49.68-.67.67-.4,1.33-.79,2.04-1.14,1.43-.7,2.79-.06,4.16-.17,2.59-.22,5.01.53,7.43,1.3,1.03.33,1.91-.45,2.34-1.43.58-1.33.31-2.75.74-4.07.13-.41.27-.88.81-.75.48.11.35.6.35.95-.01,1.07-.06,2.14-.09,3.21-.23-.02-.63-.05-.58.18.4,1.66-.56,3.18-.45,4.8-.72.74-1.72,1.06-2.6,1.53-2.14,1.14-4.13,2.44-5.79,4.22-.75.81-.83,2.1-1.92,2.66-.58-.47-1.09-.06-1.52.22-2.3,1.53-4.58,3.1-6.67,4.93-1.06.92-2.31,1.76-2.57,3.19-.26,1.39-1.1,2.52-1.36,3.88-.21,1.07-.78,1.94-1.4,2.84-.78,1.14-1.26,2.44-1.4,3.88-.27,2.79.36,5.52.37,8.29,0,1.16-.11,2.39.89,3.2.83.66.85,1.37.51,2.22-.42,1.05-.35,2.16.61,2.71,1.12.64,2.15,1.66,3.59,1.58.81-.04,1.57.21,2.33.41.39.1.84.27.89.78.06.54-.46.53-.76.66-2.54,1.13-5.17.8-7.79.38-.56-.09-1.24-.61-1.62.11-.36.68-.04,1.36.57,1.84,2.26,1.79,4.65,3.42,7.07,4.92,2.56,1.59,5.02,3.25,7.02,5.44,2.39,2.63,5.05,4.21,8.72,3.71,1.15-.16,2.34-.13,3.42.42.83.42,2.03.79,2.45.18.39-.57-.52-1.49-1.16-2.11-1.66-1.63-2.69-3.66-3.46-5.81-.2-.57-.38-1.36.3-1.79.63-.4.8.36,1.19.61.56.37,1.25.8,1.87.79.79-.02-.1-.88.33-1.24.14-.12.24-.28.36-.43.38-.45.32-.7-.21-1.08-1.86-1.33-3.82-2.28-6.17-2.17-.18,0-.37,0-.55,0-.82-.02-1.92.19-1-1.25.22-.34.03-.66-.32-.77-.94-.29-1.77-1-2.84-.79-.1-.09-.24-.17-.3-.28-1.46-2.7-3.35-5.05-5.54-7.19-1.98-1.94-3.43-4.22-3.77-7.06.23-1.3-.12-2.67.85-3.87.81-1,1.61-1.3,2.59-.42.88.8,1.71,1.71,2.86,2.04,1.36.38,2.46,1.05,3.47,2.04,1.87,1.85,3.9,3.52,5.61,5.54,1.47,1.74,2.68,3.89,5.32,4.25.5.07,1.01.33,1.46.05.48-.31,0-.76.01-1.15.05-1.11-.84-1.59-1.49-2.22-.85-.83-1.61-1.72-1.91-2.92,1.18,1.05,2.38,2.07,3.52,3.16,2.79,2.64,5.8,4.89,9.28,6.64,2.08,1.05,4.51,1.96,5.82,4.21.15.25.42.09.64.06.6-.08,1.17-.23,1.74-.47,2.31-.96,4.57-1.99,6.62-3.47.73-.52,1.28-1.04,1.85-2.05-.92.33-1.54.39-2.16.82-2.13,1.47-4.41,2.56-7.14,2.3-.8-.08-1.39-.42-1.59-1.13-.23-.8.23-1.45.93-1.86.68-.4,1.43-.68,2.09-1.1,2.14-1.35,3.74-3.11,4.47-5.63.35-1.22.11-2.9,1.96-3.29.22-.05.29-.37.22-.61-.34-1.15.46-1.96,1.05-2.66.94-1.11,1.09-2.2.58-3.46-.54-1.33-.58-2.79-1.06-4.12-.48-1.33-.21-2.84-.72-4.04-.88-2.04-.74-4.14-.9-6.22-.05-.61-.31-1.21-.05-1.9.85-2.28.2-4.26-1.78-5.66-1.03-.73-2.27-.6-3.35-.25-.9.29-.32,1.31-.47,1.99-.04.18,0,.37-.01.56-.04.44.12,1.08-.51,1.12-.66.04-.48-.63-.62-1.05-.45-1.38-1.58-3.23-2.76-3.29-1.88-.09-3.66.43-5.41.89-2.32.6-4.39,1.92-6.61,2.79-1.25.49-2.79,1.05-4.04.33-1.8-1.02-3.54-.9-4.97.18-1.88,1.42-4.23,2.17-5.78,4.04-.4.48-1.15.6-1.2,1.43-.06.87-.3,1.73-.47,2.6-.15.81-.11,1.47.61,2.12.71.64,1.27,1.48,1.31,2.54.02.58.4,1.11-.03,1.73-.52.75-1.07-.21-1.64.11.45.82.79,1.64,1.3,2.34,1.66,2.25,3.82,4.06,5.62,6.19,1.1,1.3,2.47,2.37,3.38,3.83-.57.08-1-.25-1.38-.58-2.29-1.95-4.31-4.17-6.48-6.24-1.22-1.16-2.47-2.4-3.44-3.93-1.12-1.74-2.28-3.32-2.27-5.48,0-.09-.03-.21-.1-.26-1.25-.96-.82-2.1-.36-3.24.24-.72,1.19-.99,1.19-1.86.79-.12.57-.88.77-1.34.81-1.86,2.12-3.46,2.75-5.4.05-.16.19-.37.34-.42,2.92-1.09,5.1-3.69,8.37-4.09.37-.05.7-.43,1.03-.68,1.39-1.04,2.33-.94,3.57.41.39.42,3.1.64,3.57.1.78-.9,1.82-.88,2.78-1.07.85-.17,1.15-.55,1.17-1.4.03-1.63.06-1.28,1.59-1.2.91.05,2.06.31,3.06-.29,1.57-.94,2.42-.79,3.71.4.39-1.08-.19-2.35-1.6-2.99-1.87-.86-3.91-1.19-5.94-1.3-1.66-.09-3.34-.17-5.02.18-.61.13-1.97.47-1.23-1.14.13-.28-.08-.51-.21-.77-.34-.65.03-1.09.59-1.31,2.07-.82,4.23-.69,6.54.3.29.12.64.22.94.18,2.68-.38,5.17.68,7.77.94,1.27.13,2.57.26,3.83.16,1.39-.11,2.05.79,2.36,1.74.58,1.82,2.15,2.67,3.36,3.85,1.44,1.39,2.88,2.73,4.06,4.38,1.46,2.04,2.06,4.41,3,6.65.82,1.95,1.14,4.07,1.81,6.08.32.95-.32,2.44-1.23,3.36-.56.57-.4.76-.02,1.42.85,1.52,2.59,1.95,3.51,3.3.1.15.26.26.4.39.69.61,1.94.43,2.2,1.7.44,2.11,1.25,4.17.33,6.37-.91,2.17-2.45,4.06-2.92,6.43-.04.22-.21.47-.49.4-.39-.09-.38-.45-.46-.77-.52-2.01-1.08-4.01-2.1-5.85-.25-.46-.44-1.06-1.1-.62-.53.35-.43.9-.09,1.35,1.28,1.66,1.56,3.58,1.6,5.59.03,1.65.06,1.66-1.61,1.85-.46.05-.77.29-1.08.58-.3.29-.59.69-.96.8-2.04.62-2.73,2.65-4.18,3.88-.78.66.41,1.34.14,2.14-.48.19-1.08-.73-1.63.19-.47.79-.36,1.31.03,2.01.64,1.15.87,2.44,1.08,3.73.02.14.11.34.05.4-1.13,1.22-.11,2.57-.24,3.85-.1.98-.41,1.67-1.53,1.8-1.13.13-2.25.31-3.4.38-1.33.08-2.78.65-3.81,1.74-.49.52-.99.87-1.77.98-1.26.18-2.5,1.59-2.39,2.48-1.13.57-2.32.8-3.6.85-2.59.11-4.97-.62-7.34-1.47-.95-.34-1.88-.42-2.61.33-.86.87-1.88,1.05-3.03,1.14-.79.06-1.75.02-2.35.88,2.49.94,5,1.23,7.28.1,1.48-.74,2.67-.63,4.08-.24,1.2.34,2.42.68,3.69.71-.25.68-.84.42-1.32.48-1.78.22-3.63.3-5.31.7-3.25.77-6.48.97-9.77.98-1.03,0-1.69-.5-1.69-1.44,0-.81-.35-.75-.9-.82-3.56-.42-6.64.88-9.61,2.6-.27-.05-.54-.11-.81-.16.09-.49.22-.98.24-1.47.03-.57.16-1.26-.78-1.25-.03-.18-.06-.36-.09-.55.24-.13.57-.26.45-.6-.12-.34-.46-.21-.73-.22-.16-.29-.31-.59-.47-.88.79-.22.37-.61.2-1.05-.99-2.58-3.47-3.61-5.42-5.14-1.84-1.44-4.2-2.14-5.99-3.69-1.19-1.04-2.54-2.08-2.31-3.99.06-.48-.2-.69-.69-.57Zm66-34.74c-.55-.78-.95-1.35-1.35-1.91-.6-.86-1.46-1.24-2.43-.92-.85.28-1.02,1.1-1.01,1.95.03,1.85.02,3.7.03,5.56,0,.28-.02.67.29.71,1.88.27,1.73,2.41,3.1,3.34.83.56,1.56,1.62,2.61,2.17.86.45,1.8.87,2.27,1.78.29.56.61.92,1.25.92.36,0,.64-.17.75-.52.21-.66-.2-1.08-.64-1.43-1.26-1.01-1.78-2.4-2.25-3.9-.86-2.75.13-5.88-1.77-8.4-.11-.15.02-.47-.04-.69-.52-2.09-.23-4.35-1.46-6.31-1.72-2.76-4.22-4.37-7.25-5.27-1.58-.47-3.18-.46-4.82.03,3.77-.47,6.37,1.84,9.24,3.6,1.75,1.07,4,6.38,3.48,9.3Zm-26.09,39.08c2.35.65,5.5-.4,6.7-2.08.2-.28.36-.54.26-.89-.08-.27-.37-.44-.52-.32-.98.76-2.82.12-3.15,1.98-.09.53-.62.78-1.19.77-.66,0-1.26.21-2.09.54Zm-43.78-15.55c-.09-.07-.2-.21-.35-.27-.15-.06-.29.08-.24.22.05.15.19.3.34.37.14.07.24-.06.26-.31Z"/>
            <path class="cls-12" d="m161.38,251.91c-1.23-1.93-2.85-3.32-4.26-4.9-.7-.79-.65-1.28.35-1.8,2.3-1.23,3.89-3.19,5.2-5.4.21-.35.35-.87.87-.75.56.13.36.68.38,1.07.17,2.83-.16,5.55-1.78,8-.2.31-.12.81-.16,1.22-.08.81-.02,1.64-.6,2.57Z"/>
            <path class="cls-5" d="m158.95,238.55c-.05-.38-.12-.77.35-.97.01.37-.04.71-.35.97Z"/>
            <path class="cls-5" d="m160.21,230.57s-.04.05-.06.07c-.02-.03-.04-.06-.04-.09,0-.03.04-.05.06-.07.02.03.03.06.05.09Z"/>
          </g>
          <path class="cls-12" d="m204.27,251.57c.33,1.96.42,3.98,1.56,5.72.12.18.16.48-.15.57-.27.08-.4-.17-.54-.35-1.17-1.45-1.96-3.15-2.76-4.8-.59-1.21-1.21-2.35-2.24-3.13-.92-.69-1.58-1.63-2.62-2.22-1.32-.75-1.31-2.05-.79-3.62,1.21-3.64,4.09-5.96,6.51-8.66.28-.31.57-.63,1.06-.59-.1,1.44-.88,2.65-1.35,3.96-.75,2.1-1.52,4.33-.39,6.63.21.42.09,1,.17,1.5.27,1.74.32,3.54,1.55,4.98Z"/>
          <path class="cls-12" d="m204.29,250.41c2.67.26,5.35.62,8.03.06.31-.07.65-.05.91.22-.13.4-.77.31-.81.9,1.19-.17,2.41-.43,3.49-.37,1.2.06,2.3-.17,3.45-.24-1.76,2.63-4.66,4.58-7.54,3.26-1.19-.55-2.46-1-3.83-1.04-.96-.02-1.71-.66-2.4-1.27-.4-.35-.72-.73-1.3-.63,0-.3,0-.6,0-.9Z"/>
          <path class="cls-9" d="m204.29,250.41c0,.3,0,.6,0,.9,0,.09-.02.18-.03.26-1.23-1.44-1.29-3.24-1.55-4.98-.08-.5.04-1.07-.17-1.5-1.13-2.29-.36-4.53.39-6.63.47-1.31,1.24-2.51,1.35-3.96.21-.18.4-.39.63-.55.38-.27.63-1.06,1.18-.67.4.29.17.95,0,1.44-1.71,5.1-1.57,10.41-1.8,15.67Z"/>
          <path class="cls-12" d="m224.57,242.03c1.32,1.12.83,2.69.58,3.9-.34,1.68-.63,3.47-1.63,4.97-.25.37-.31,1.21-1.02.81-.61-.35-.12-.98.08-1.36,1.49-2.85,1.24-5.82-.14-8.43-1.67-3.17-4.09-5.83-7.41-7.52-1.22-.62-2.55-1.07-3.54-2.08,5.13,1.63,9.4,4.42,12.28,9.09.21.34.34.65.8.62Z"/>
          <path class="cls-9" d="m224.57,242.03c-.45.03-.59-.29-.8-.62-2.88-4.67-7.15-7.46-12.28-9.09-.17-.02-.34-.03-.5-.05-.3-.39-.69-.59-1.19-.52-.34-.04-.69-.08-1.03-.13-.05-.62-.77-.36-1.08-.7,2.32-.42,4.37.35,6.44.97.9.24,1.63.82,2.44,1.25.08.08.17.15.25.23,0,0,.04.04.04.03.1.08.2.15.3.23.23.04.54,0,.66.15,2.21,2.46,4.99,4.42,6.54,7.45.12.24.15.53.22.8Z"/>
          <path class="cls-9" d="m219.37,250.99c-1.15.07-2.25.3-3.45.24-1.08-.06-2.3.2-3.49.37.04-.59.68-.51.81-.9.17,0,.34,0,.52,0,1.55-.04,2.92-.73,4.23-1.41.9-.47,2.24-.51,2.55-1.85.57-.27,1.17-1.23,1.7-.66.53.57-.19,1.43-.69,1.87-.81.72-.92,2.08-2.18,2.35Z"/>
          <path class="cls-12" d="m208.15,238.81c3.25-.49,6.9,1.89,7.73,4.85.08.27.15.54.15.82,0,.49.18,1.22-.44,1.31-.67.09-.6-.65-.71-1.13-.56-2.44-2.25-3.87-4.42-4.8-.68-.29-1.35-.58-2.32-1.05Z"/>
          <path class="cls-12" d="m214.13,231.89c-2.07-.62-4.12-1.38-6.44-.97.31.34,1.03.08,1.08.7-1.14,0-2.29,0-3.58,0,.35-.89,1.16-.92,1.69-1.19,2.37-1.23,6.12-.42,7.25,1.46Z"/>
          <path class="cls-12" d="m207.39,240.6c1.12,2.64,2.98,4.41,5.55,5.76-3.06.39-6.33-3.05-5.55-5.76Z"/>
          <path class="cls-12" d="m220.54,247.42c-.31,1.34-1.65,1.38-2.55,1.85-1.31.68-2.68,1.38-4.23,1.41,1.1-.94,2.6-1.09,3.75-1.94.9-.67,1.88-1.21,3.03-1.33Z"/>
          <path class="cls-12" d="m209.8,231.75c.5-.07.89.13,1.19.52-.63.37-.93-.03-1.19-.52Z"/>
          <path class="cls-12" d="m216.82,233.37c-.08-.08-.17-.16-.25-.23.08.08.17.16.25.23Z"/>
          <path class="cls-12" d="m217.15,233.63c-.1-.08-.2-.15-.3-.23.1.08.2.15.3.23Z"/>
        </g>
      </g>
    </symbol>
  </defs>
  <path class="cls-6" d="m89.19,102.47c3.18,1.03,6.64.25,8.92-2.25l-4.24,1.76c6.96.92,17.09,1.34,22.65-3.68,3.99-3.6.73-10.14-4.24-10.24-3.91-.08-9.68-.4-12.66,2.68-.62.64-1.42,1.74-1.54,2.65-.34.88-.17.71.53-.49.97-1.05.99-1.27.05-.68-1.88.11-5.52,2.75-7.19,3.58-3.19,1.59-4.16,7.09-1.21,9.42,1.35,1.07,2.58,1.97,4.26,2.49.68.2,1.36.34,2.06.45,1.27.45,1.38.26.33-.57l-.6-4.62-.13.94c-.37,2.69.25,5.31,2.76,6.78,2.14,1.25,5.61,1.1,7.27-.94,1.77-2.17,3.68-4.8,6.39-5.86,7.11-2.79,4.01-14.4-3.19-11.57-4.91,1.93-8.38,4.89-11.68,8.94l10.03,5.84c.46-3.35.1-5.78-2.6-8.12-1.09-.94-2.34-1.55-3.71-1.99-.36-.11-3.19-.66-2.69-.26-.4,3.14-.81,6.28-1.21,9.42,4.98-2.48,10.26-3.94,12.12-9.59-.92,1.2-1.84,2.39-2.76,3.59-.85.56,1.42-.04,1.75-.06,1.22-.08,2.42-.07,3.64-.04l-4.24-10.24c-.84.76-7.04.63-8.95.59-1.69-.03-3.56-.54-5.22-.43-1.08,0-2.09.28-3.03.82-2.06,1.36-1.54,1.4,1.55.1-7.36-2.38-10.52,9.2-3.19,11.57h0Z"/>
  <path class="cls-6" d="m114.7,98.99c7.72,0,7.73-12,0-12s-7.73,12,0,12h0Z"/>
  <use width="312.73" height="294.13" transform="translate(-6.35 -.19) rotate(-.02) scale(.65 .53)" xlink:href="#Ashlee_Logo"/>
</svg>